<svg xmlns="http://www.w3.org/2000/svg" width="1360" viewBox="0 0 680 80" height="160">
<rect x="0" y="0" width="680" height="80" fill="#0f172a"/>
<rect x="0" y="76" width="680" height="4" fill="#f47c3c"/>
<circle cx="600" cy="40" r="80" fill="#162038" opacity="0.5"/>
<g transform="translate(555, 0) scale(0.44)" opacity="0.12">
  <path fill="#60b444" d="M 68.394531 155.507812 L 83.902344 155.507812 L 83.902344 130.808594 L 68.394531 145.824219 Z"/>
  <path fill="#60b444" d="M 151.535156 87.910156 L 142.015625 97.765625 L 142.015625 155.507812 L 157.523438 155.507812 L 157.523438 93.703125 L 157.507812 93.765625 Z"/>
  <path fill="#60b444" d="M 123.597656 155.347656 L 139.101562 155.347656 L 139.101562 100.785156 L 123.597656 116.847656 Z"/>
  <path fill="#60b444" d="M 105.175781 126.847656 L 105.175781 155.347656 L 120.683594 155.347656 L 120.683594 119.863281 L 110.179688 130.742188 Z"/>
  <path fill="#60b444" d="M 86.753906 127.886719 L 86.753906 155.347656 L 102.261719 155.347656 L 102.261719 124.582031 L 95.558594 119.363281 Z"/>
  <path fill="#f47c3c" d="M 162.46875 68.421875 L 157.148438 90.648438 L 157.035156 91.125 L 151.484375 85.691406 L 123.3125 114.871094 L 120.398438 117.886719 L 110.070312 128.582031 L 95.46875 117.214844 L 68.933594 142.914062 L 68.933594 131.765625 L 72.324219 128.480469 L 94.914062 106.609375 L 109.328125 117.832031 L 145.769531 80.089844 L 140.53125 74.957031 Z"/>
  <path fill="#ffffff" d="M 119.65625 112.019531 L 96.613281 88.976562 C 101.988281 81.589844 105.164062 72.503906 105.164062 62.6875 C 105.164062 37.988281 85.066406 17.890625 60.367188 17.890625 C 35.667969 17.890625 15.570312 37.988281 15.570312 62.6875 C 15.570312 87.390625 35.667969 107.484375 60.367188 107.484375 C 72.347656 107.484375 83.246094 102.753906 91.292969 95.066406 L 113.953125 117.726562 C 114.738281 118.515625 115.773438 118.90625 116.804688 118.90625 C 117.835938 118.90625 118.871094 118.515625 119.65625 117.726562 C 121.234375 116.152344 121.234375 113.597656 119.65625 112.019531 Z M 60.367188 99.414062 C 40.113281 99.414062 23.640625 82.941406 23.640625 62.6875 C 23.640625 42.4375 40.113281 25.960938 60.367188 25.960938 C 80.617188 25.960938 97.09375 42.4375 97.09375 62.6875 C 97.09375 82.941406 80.617188 99.414062 60.367188 99.414062 Z"/>
</g>
<!-- Up-arrow icon -->
<path d="M 46 54 L 46 26 M 36 36 L 46 26 L 56 36" fill="none" stroke="#f47c3c" stroke-width="3" stroke-linecap="round" stroke-linejoin="round"/>
<text x="82" y="46" font-family="system-ui, -apple-system, sans-serif" font-size="20" font-weight="500" fill="#ffffff" letter-spacing="-0.3">Premium upgrades</text>
</svg>
